<svg width="40" height="60" viewBox="0 0 40 60" fill="none" xmlns="http://www.w3.org/2000/svg">
<path d="M33.8787 7.44707H31.9101C30.8156 3.44219 25.9754 0.507812 20 0.507812C14.0246 0.507812 9.18437 3.44219 8.09003 7.44707H6.12148C3.25156 7.44707 0.916992 9.78164 0.916992 12.6516V47.3482C0.916992 50.2182 3.25156 52.5527 6.12148 52.5527H13.0607V47.3482H11.326C8.45605 47.3482 6.12148 45.0137 6.12148 42.1437V17.8561C6.12148 14.9861 8.45605 12.6516 11.326 12.6516H28.6742C31.5441 12.6516 33.8787 14.9861 33.8787 17.8561V42.1437C33.8787 45.0137 31.5441 47.3482 28.6742 47.3482H26.9394V52.5527H33.8787C36.7486 52.5527 39.0832 50.2182 39.0832 47.3482V12.6518C39.0832 9.78164 36.7486 7.44707 33.8787 7.44707ZM26.9392 56.0224H23.4695V43.8785H28.674C29.633 43.8785 30.4088 43.1025 30.4088 42.1437V17.8561C30.4088 16.8973 29.6328 16.1213 28.674 16.1213H11.3258C10.3668 16.1213 9.59101 16.8973 9.59101 17.8561V42.1437C9.59101 43.1025 10.367 43.8785 11.3258 43.8785H16.5303V56.0224H13.0605C12.1016 56.0224 11.3258 56.7984 11.3258 57.7572C11.3258 58.716 12.1018 59.492 13.0605 59.492H26.9392C27.8982 59.492 28.674 58.716 28.674 57.7572C28.674 56.7984 27.8982 56.0224 26.9392 56.0224ZM21.7348 33.4697C21.7348 34.4287 20.9588 35.2045 20 35.2045C19.0412 35.2045 18.2652 34.4285 18.2652 33.4697V31.735H16.5305C15.5715 31.735 14.7957 30.959 14.7957 30.0002C14.7957 29.0414 15.5717 28.2654 16.5305 28.2654H18.2652V26.5307C18.2652 25.5717 19.0412 24.7959 20 24.7959C20.9588 24.7959 21.7348 25.5719 21.7348 26.5307V28.2654H23.4695C24.4285 28.2654 25.2043 29.0414 25.2043 30.0002C25.2043 30.959 24.4283 31.735 23.4695 31.735H21.7348V33.4697Z" fill="url(#paint0_linear)"/>
<defs>
<linearGradient id="paint0_linear" x1="20" y1="0.507812" x2="20" y2="59.4922" gradientUnits="userSpaceOnUse">
<stop stop-color="#FD3A84"/>
<stop offset="1" stop-color="#FFA68D"/>
</linearGradient>
</defs>
</svg>
