<svg width="16" height="16" viewBox="0 0 16 16" fill="none" xmlns="http://www.w3.org/2000/svg">
<path d="M14.7442 11.1958L12.6755 9.13143C11.9367 8.39417 10.6807 8.6891 10.3852 9.64751C10.1635 10.3111 9.4247 10.6797 8.75977 10.5322C7.28215 10.1636 5.28736 8.24672 4.91795 6.69847C4.69631 6.03491 5.13959 5.29765 5.80452 5.0765C6.76498 4.78159 7.06051 3.52825 6.32169 2.79099L4.25302 0.726661C3.66197 0.210579 2.77539 0.210579 2.25823 0.726661L0.854483 2.12746C-0.54926 3.60198 1.00225 7.50946 4.47466 10.9746C7.94708 14.4397 11.8628 16.0617 13.3404 14.5872L14.7442 13.1864C15.2614 12.5965 15.2614 11.7118 14.7442 11.1958Z" fill="white"/>
</svg>
