<svg width="28" height="28" viewBox="0 0 28 28" fill="none" xmlns="http://www.w3.org/2000/svg">
<path d="M24.6959 9.64829H28.0082C27.306 7.39375 26.0755 5.34108 24.42 3.66234C22.7646 1.9836 20.7323 0.727728 18.4937 0V3.3999C21.2906 4.5957 23.5147 6.83637 24.6959 9.64829Z" fill="white"/>
<path d="M9.36277 3.39992V0.0471191C7.1575 0.791083 5.15923 2.04907 3.53177 3.71797C1.90431 5.38688 0.693985 7.41918 0 9.64831H3.16601C4.34644 6.83774 6.56829 4.59738 9.36277 3.39992Z" fill="white"/>
<path d="M18.4937 24.9742V28C20.6508 27.2955 22.6167 26.1002 24.2379 24.5073C25.8591 22.9144 27.0918 20.9671 27.8399 18.8173H24.6545C23.4626 21.5862 21.2573 23.7901 18.4937 24.9742Z" fill="white"/>
<path d="M3.20743 18.8173H0.157349C0.896292 20.9448 2.10982 22.8746 3.70524 24.4594C5.30066 26.0442 7.23578 27.2419 9.36279 27.9612V24.9742C6.60092 23.7895 4.39754 21.5855 3.20743 18.8173Z" fill="white"/>
<path d="M20.528 12.059H16.0895V7.60059H11.7559V12.059H7.3147V16.4093H11.7559V20.8649H16.0895V16.4093H20.528V12.059Z" fill="white"/>
</svg>
