<svg width="50" height="60" viewBox="0 0 50 60" fill="none" xmlns="http://www.w3.org/2000/svg">
<path d="M40.6135 31.7348C35.8309 31.7348 31.9393 35.6264 31.9393 40.409C31.9393 44.5977 34.9243 48.1016 38.8787 48.9076V50.818C38.8787 53.6879 36.5442 56.0225 33.6743 56.0225H26.735C23.8651 56.0225 21.5305 53.6879 21.5305 50.818V45.0816C22.5489 44.4771 23.2653 43.4141 23.2653 42.1437V34.842C32.2575 33.3416 38.8787 26.3297 38.8787 17.8561C38.8787 14.1193 37.4916 10.5268 35.0582 7.54766C35.2758 6.97481 35.4092 6.36055 35.4092 5.71231C35.4092 2.84238 33.0746 0.507812 30.2047 0.507812C27.3346 0.507812 25 2.84238 25 5.71231C25 8.58223 27.3346 10.9168 30.2045 10.9168C31.1393 10.9168 32.0045 10.6494 32.7637 10.2162C34.4487 12.4781 35.4092 15.1227 35.4092 17.8561C35.4092 24.4592 30.2598 29.9617 23.1879 31.3504C22.9881 29.6238 21.5758 28.265 19.7957 28.265C18.0161 28.265 16.6039 29.6236 16.4037 31.3498C9.33246 29.9619 4.18226 24.4576 4.18226 17.8561C4.18226 15.1227 5.14261 12.4781 6.82777 10.2162C7.58675 10.6492 8.45199 10.9168 9.38675 10.9168C12.2567 10.9168 14.5912 8.58223 14.5912 5.71231C14.5912 2.84238 12.2565 0.507812 9.38656 0.507812C6.51664 0.507812 4.18207 2.84238 4.18207 5.71231C4.18207 6.36055 4.31547 6.97481 4.53304 7.54766C2.09965 10.527 0.712341 14.1193 0.712341 17.8561C0.712341 26.3275 7.33558 33.342 16.3258 34.8418V42.1437C16.3258 43.4143 17.0422 44.4773 18.0606 45.0816V50.818C18.0606 55.6006 21.952 59.4922 26.7348 59.4922H33.6741C38.4567 59.4922 42.3483 55.6006 42.3483 50.818V48.9076C46.3028 48.1016 49.2877 44.5977 49.2877 40.409C49.2877 35.6264 45.3961 31.7348 40.6135 31.7348ZM40.6135 42.1437C39.6555 42.1437 38.8787 41.367 38.8787 40.409C38.8787 39.451 39.6555 38.6742 40.6135 38.6742C41.5715 38.6742 42.3483 39.451 42.3483 40.409C42.3483 41.367 41.5715 42.1437 40.6135 42.1437Z" fill="url(#paint0_linear)"/>
<defs>
<linearGradient id="paint0_linear" x1="25" y1="0.507812" x2="25" y2="59.4922" gradientUnits="userSpaceOnUse">
<stop stop-color="#5558FF"/>
<stop offset="1" stop-color="#00C0FF"/>
</linearGradient>
</defs>
</svg>
