<svg width="60" height="60" viewBox="0 0 60 60" fill="none" xmlns="http://www.w3.org/2000/svg">
<path d="M58.9914 1.00858C58.3238 0.340808 57.2432 0.340808 56.5754 1.00858L40.6492 16.9348C38.7459 16.032 36.4047 16.3474 34.8318 17.9203L30.9854 21.7668C29.082 20.864 26.7408 21.1795 25.168 22.7523L9.46427 38.456L8.25626 37.248C7.58849 36.5804 6.50802 36.5804 5.84025 37.248C5.17267 37.9156 5.17267 38.9963 5.84025 39.664L11.8801 45.7039L7.04806 50.5357L3.42423 46.9119C2.75646 46.2441 1.67599 46.2441 1.00822 46.9119C0.340442 47.5795 0.340442 48.6601 1.00822 49.3279L10.6721 58.9918C11.3399 59.6594 12.4203 59.6594 13.0881 58.9918C13.7557 58.3242 13.7557 57.2435 13.0881 56.5758L9.46408 52.9517L14.2959 48.1199L20.3358 54.1597C21.0035 54.8273 22.084 54.8273 22.7518 54.1597C23.4195 53.4922 23.4195 52.4115 22.7518 51.7437L21.5438 50.5357L23.9598 48.1197L20.3358 44.4957C19.6682 43.8281 19.6682 42.7474 20.3358 42.0797C21.0035 41.4121 22.084 41.4121 22.7518 42.0797L26.3758 45.7037L28.7918 43.2877L25.168 39.6637C24.5002 38.9961 24.5002 37.9154 25.168 37.2476C25.8356 36.5801 26.9162 36.5801 27.584 37.2476L31.2078 40.8717L33.6238 38.4556L30 34.8318C29.3322 34.1642 29.3322 33.0836 30 32.4158C30.6678 31.748 31.7483 31.7482 32.416 32.4158L36.04 36.0398L37.2481 34.8318C38.8209 33.259 39.1363 30.9178 38.2336 29.0144L42.0801 25.168C43.6529 23.5951 43.9682 21.2539 43.0656 19.3506L58.9918 3.4244C59.6592 2.75682 59.6592 1.67616 58.9914 1.00858Z" fill="url(#paint0_linear)"/>
<defs>
<linearGradient id="paint0_linear" x1="59.0239" y1="1.02268" x2="5.88097" y2="54.1656" gradientUnits="userSpaceOnUse">
<stop stop-color="#FD3A84"/>
<stop offset="1" stop-color="#FFA68D"/>
</linearGradient>
</defs>
</svg>
