<svg width="54" height="60" viewBox="0 0 54 60" fill="none" xmlns="http://www.w3.org/2000/svg">
<path d="M51.2877 56.0225H49.5529V12.6518C49.5529 11.6928 48.777 10.917 47.8182 10.917H40.8787V19.5912C40.8787 22.4612 38.5441 24.7957 35.6742 24.7957H18.326C15.4561 24.7957 13.1215 22.4612 13.1215 19.5912V10.917H6.18204C5.22325 10.917 4.44727 11.693 4.44727 12.6518V56.0227H2.7125C1.75371 56.0227 0.977737 56.7987 0.977737 57.7574C0.977737 58.7164 1.75371 59.4922 2.7125 59.4922H51.2879C52.2467 59.4922 53.0227 58.7162 53.0227 57.7574C53.0225 56.7985 52.2465 56.0225 51.2877 56.0225ZM40.8787 50.818H13.1213C12.1625 50.818 11.3865 50.042 11.3865 49.0832C11.3865 48.1242 12.1625 47.3485 13.1213 47.3485H40.8787C41.8375 47.3485 42.6135 48.1244 42.6135 49.0832C42.6135 50.042 41.8375 50.818 40.8787 50.818ZM42.6135 42.144C42.6135 43.1029 41.8375 43.8787 40.8787 43.8787H13.1213C12.1625 43.8787 11.3865 43.1028 11.3865 42.144V31.735C11.3865 30.776 12.1625 30.0002 13.1213 30.0002H40.8787C41.8375 30.0002 42.6135 30.7762 42.6135 31.735V42.144ZM14.8561 40.409H25.265V33.4696H14.8561V40.409ZM28.7348 40.409H39.1438V33.4696H28.7348V40.409ZM18.3258 21.3258H35.674C36.633 21.3258 37.409 20.5498 37.409 19.591V2.24279C37.409 1.28381 36.633 0.508026 35.674 0.508026H18.3258C17.3668 0.508026 16.5908 1.284 16.5908 2.24279V19.591C16.591 20.5498 17.367 21.3258 18.3258 21.3258ZM23.5303 9.18205H25.265V7.44728C25.265 6.4883 26.041 5.71252 26.9998 5.71252C27.9586 5.71252 28.7346 6.48849 28.7346 7.44728V9.18205H30.4693C31.4283 9.18205 32.2041 9.95803 32.2041 10.9168C32.2041 11.8756 31.4281 12.6516 30.4693 12.6516H28.7346V14.3863C28.7346 15.3453 27.9586 16.1211 26.9998 16.1211C26.041 16.1211 25.265 15.3451 25.265 14.3863V12.6516H23.5303C22.5713 12.6516 21.7955 11.8756 21.7955 10.9168C21.7955 9.95803 22.5715 9.18205 23.5303 9.18205Z" fill="url(#paint0_linear)"/>
<defs>
<linearGradient id="paint0_linear" x1="27" y1="0.507831" x2="27" y2="59.4922" gradientUnits="userSpaceOnUse">
<stop stop-color="#A93AFF"/>
<stop offset="1" stop-color="#FF81FF"/>
</linearGradient>
</defs>
</svg>
