<svg width="28" height="28" viewBox="0 0 28 28" fill="none" xmlns="http://www.w3.org/2000/svg">
<path d="M27.2658 20.5492L23.3501 16.6417C21.9516 15.2461 19.5742 15.8044 19.0148 17.6185C18.5953 18.8746 17.1968 19.5723 15.9382 19.2932C13.1413 18.5954 9.3654 14.967 8.66616 12.0364C8.24662 10.7804 9.0857 9.38487 10.3443 8.96627C12.1623 8.40806 12.7217 6.03566 11.3232 4.64013L7.40754 0.732652C6.28877 -0.244217 4.61061 -0.244217 3.63169 0.732652L0.974601 3.38416C-1.68248 6.17521 1.25429 13.5715 7.82709 20.1305C14.3999 26.6895 21.8117 29.7597 24.6087 26.9686L27.2658 24.3171C28.2447 23.2007 28.2447 21.526 27.2658 20.5492Z" fill="#AC1F30"/>
</svg>
