<svg width="340" height="340" viewBox="0 0 340 340" fill="none" xmlns="http://www.w3.org/2000/svg">
<path d="M170 0C76.1928 0 0 76.1928 0 170C0 263.807 76.1928 340 170 340C263.807 340 340 263.807 340 170C340 76.1928 263.807 0 170 0ZM170 325.253C84.3855 325.253 14.747 255.614 14.747 170C14.747 84.3855 84.3855 14.747 170 14.747C255.614 14.747 325.253 84.3855 325.253 170C325.253 255.614 255.614 325.253 170 325.253Z" fill="white" fill-opacity="0.8"/>
<path d="M258.482 133.133H206.867V81.5181C206.867 77.4217 203.59 74.1446 199.494 74.1446H140.506C136.41 74.1446 133.133 77.4217 133.133 81.5181V133.133H81.5181C77.4217 133.133 74.1446 136.41 74.1446 140.506V199.494C74.1446 203.59 77.4217 206.867 81.5181 206.867H133.133V258.482C133.133 262.578 136.41 265.855 140.506 265.855H199.494C203.59 265.855 206.867 262.578 206.867 258.482V206.867H258.482C262.578 206.867 265.855 203.59 265.855 199.494V140.506C265.446 136.41 262.169 133.133 258.482 133.133ZM251.518 192.12H251.108H199.494C195.398 192.12 192.12 195.398 192.12 199.494V251.108H147.88V199.494C147.88 195.398 144.602 192.12 140.506 192.12H88.8916V147.88H140.506C144.602 147.88 147.88 144.602 147.88 140.506V88.8916H192.53V140.506C192.53 144.602 195.807 147.88 199.904 147.88H251.518V192.12Z" fill="white" fill-opacity="0.8"/>
</svg>
