<svg width="45" height="45" viewBox="0 0 45 45" fill="none" xmlns="http://www.w3.org/2000/svg">
<path d="M45 22.5C45 10.0939 34.9061 0 22.5 0C10.0939 0 0 10.0939 0 22.5C0 29.0528 2.81782 34.9593 7.30309 39.0747L7.28182 39.0935L8.01164 39.7088C8.05909 39.7489 8.11064 39.7816 8.15809 39.8209C8.54591 40.1425 8.94764 40.4476 9.35673 40.743C9.48927 40.8387 9.62182 40.9345 9.75682 41.0277C10.1937 41.3288 10.6421 41.6144 11.1003 41.8852C11.2001 41.9441 11.3007 42.0014 11.4014 42.0586C11.9029 42.3442 12.4151 42.6134 12.9395 42.8605C12.978 42.8785 13.0173 42.8948 13.0557 42.9128C14.7649 43.7073 16.5895 44.2906 18.4975 44.6351C18.5474 44.6441 18.5973 44.6531 18.648 44.6621C19.2404 44.7644 19.8393 44.8462 20.4455 44.901C20.5192 44.9075 20.5928 44.9116 20.6673 44.9182C21.2711 44.9681 21.8815 45 22.5 45C23.1128 45 23.7175 44.9681 24.318 44.9198C24.3941 44.9133 24.4702 44.9092 24.5463 44.9026C25.1476 44.8478 25.7416 44.7685 26.3283 44.6678C26.379 44.6588 26.4305 44.6498 26.4813 44.64C28.3606 44.3029 30.159 43.7326 31.8461 42.9586C31.9083 42.93 31.9713 42.903 32.0335 42.8735C32.5383 42.6363 33.0316 42.3802 33.5152 42.1077C33.6355 42.0398 33.7549 41.9711 33.8744 41.9007C34.3145 41.6414 34.7474 41.3705 35.1679 41.0825C35.3193 40.9795 35.4674 40.8706 35.6171 40.7626C35.9763 40.5041 36.3289 40.2374 36.6717 39.9584C36.7478 39.897 36.8296 39.8438 36.9041 39.7808L37.6527 39.1557L37.6306 39.1369C42.1552 35.0198 45 29.0864 45 22.5ZM1.63636 22.5C1.63636 10.9955 10.9955 1.63636 22.5 1.63636C34.0045 1.63636 43.3636 10.9955 43.3636 22.5C43.3636 28.6994 40.6432 34.2728 36.3363 38.097C36.0957 37.9309 35.8535 37.782 35.6056 37.6576L28.6781 34.1943C28.0563 33.8834 27.6701 33.2583 27.6701 32.5636V30.1443C27.8305 29.9463 27.9998 29.7221 28.1749 29.4758C29.0716 28.2093 29.7908 26.8004 30.3153 25.2843C31.3519 24.7917 32.0212 23.7592 32.0212 22.5933V19.6928C32.0212 18.9835 31.761 18.2954 31.2955 17.7545V13.9361C31.338 13.5106 31.4885 11.115 29.7548 9.13827C28.2469 7.41682 25.8063 6.54545 22.5 6.54545C19.1937 6.54545 16.7531 7.41682 15.2452 9.13745C13.5115 11.1142 13.662 13.5115 13.7045 13.9353V17.7537C13.2398 18.2945 12.9788 18.9826 12.9788 19.692V22.5925C12.9788 23.4933 13.383 24.3335 14.0752 24.9005C14.7379 27.4966 16.1018 29.4619 16.6058 30.1279V32.4957C16.6058 33.1634 16.2417 33.777 15.6551 34.0977L9.18573 37.6265C8.97955 37.7386 8.775 37.8695 8.57045 38.016C4.31673 34.1935 1.63636 28.6544 1.63636 22.5Z" fill="#37D396"/>
</svg>
