<svg width="100" height="100" viewBox="0 0 100 100" fill="none" xmlns="http://www.w3.org/2000/svg">
<g clip-path="url(#clip0)">
<path d="M97.7527 18.0476H93.8873V14.1822C93.8873 13.0136 92.8985 12.0248 91.7299 12.0248H79.0549C77.8863 12.0248 76.8975 13.0136 76.8975 14.1822V15.7104C75.639 15.0812 74.3804 14.5418 73.1219 14.0923C70.6049 13.2833 67.9081 12.8338 65.1214 12.8338C60.8066 12.8338 56.6715 13.9125 53.0757 15.8003C50.1991 17.3285 47.6821 19.3061 45.6146 21.7333C43.547 19.3061 40.9401 17.2386 38.1534 15.8003C34.5577 13.9125 30.5125 12.8338 26.1077 12.8338C21.5232 12.8338 17.1184 14.0923 13.3429 16.1599C9.47748 18.4072 6.15143 21.5535 3.9041 25.4189C3.27484 26.4976 2.64559 27.6662 2.19612 28.8348C-2.47833 39.622 0.757832 50.3193 7.67962 59.6682C14.3317 68.7475 24.3998 76.5682 33.8386 82.1416C37.704 84.3889 41.3896 86.3665 44.8055 87.8048C45.3449 88.0745 45.9742 87.9846 46.4236 87.8048C46.5135 87.8048 46.5135 87.715 46.6034 87.715C56.4018 83.49 69.6161 75.2198 79.0549 65.0618C85.707 57.8704 90.5612 49.6901 91.1006 41.0603H91.8197C92.9884 41.0603 93.9772 40.0715 93.9772 38.9029V35.0375H97.8426C99.0112 35.0375 100 34.0486 100 32.88V20.2051C99.9101 19.0365 99.0112 18.0476 97.7527 18.0476ZM75.8187 62.2751C67.0092 71.8038 54.7837 79.4448 45.5247 83.6697C42.5582 82.3214 39.3221 80.6134 35.9061 78.6357C26.9168 73.332 17.2982 65.8709 11.0057 57.2411C4.98282 48.9709 2.01634 39.8018 5.97164 30.6327C6.42111 29.7338 6.87058 28.7449 7.49983 27.7561C9.38759 24.5199 12.0844 21.913 15.4104 20.0253C18.5567 18.2274 22.1524 17.2386 26.0178 17.2386C29.6136 17.2386 33.0295 18.1375 35.996 19.6657C39.0524 21.2838 41.7492 23.621 43.7268 26.4976C43.9066 26.6774 44.0864 26.9471 44.2662 27.1269C45.255 27.7561 46.6034 27.5763 47.2327 26.5875C49.2103 23.7109 51.8172 21.3737 54.9635 19.6657C57.93 18.0476 61.3459 17.2386 64.9416 17.2386C67.2789 17.2386 69.5262 17.5982 71.5938 18.3173C71.6836 18.3173 71.7735 18.4072 71.8634 18.4072C71.8634 18.4072 71.7735 18.4072 71.7735 18.4971C71.6836 18.587 71.5039 18.6769 71.414 18.7668L71.3241 18.8567C71.2342 18.9466 71.0544 19.1264 70.9645 19.2162C70.9645 19.2162 70.9645 19.3061 70.8746 19.3061C70.7847 19.396 70.7847 19.5758 70.6948 19.6657C70.6948 19.7556 70.6948 19.7556 70.6948 19.8455C70.6049 20.0253 70.6049 20.2051 70.6049 20.3849V32.9699C70.6049 34.1385 71.5938 35.1274 72.7624 35.1274H76.8975V38.9928C76.8975 40.1614 77.8863 41.1502 79.0549 41.1502H86.7857C86.1565 48.5215 81.8416 55.8028 75.8187 62.2751ZM95.6852 30.8125H91.8197C90.6511 30.8125 89.6623 31.8013 89.6623 32.9699V36.8353H89.0331H81.2123V32.9699C81.2123 31.8013 80.2235 30.8125 79.0549 30.8125H75.1895V22.3625H79.0549C80.2235 22.3625 81.2123 21.3737 81.2123 20.2051V19.5758V16.3397H89.6623V20.2051C89.6623 21.3737 90.6511 22.3625 91.8197 22.3625H95.6852V30.8125Z" fill="#37D396"/>
</g>
<defs>
<clipPath id="clip0">
<rect width="100" height="100" fill="white"/>
</clipPath>
</defs>
</svg>
