<svg width="100" height="100" viewBox="0 0 100 100" fill="none" xmlns="http://www.w3.org/2000/svg">
<path d="M86.4427 45.6642C89.4132 45.6642 91.8214 43.256 91.8214 40.2854C91.8214 37.3149 89.4132 34.9067 86.4427 34.9067C83.4721 34.9067 81.064 37.3149 81.064 40.2854C81.064 43.256 83.4721 45.6642 86.4427 45.6642Z" fill="#37D396"/>
<path d="M86.4426 26.7838C78.9783 26.7838 72.941 32.8211 72.941 40.2854C72.941 47.0911 77.9904 52.6894 84.4668 53.6773V70.1427C84.4668 84.5225 72.8312 96.2678 58.5612 96.2678C44.2912 96.2678 32.6556 84.5225 32.6556 70.1427V58.0681C48.0233 56.7508 60.098 43.9078 60.098 28.2108C60.098 21.0757 57.5733 14.27 52.9629 8.89133C53.5118 8.01317 53.8411 7.02525 53.8411 5.92755C53.8411 2.63447 51.2066 0 47.9135 0C44.6205 0 41.986 2.63447 41.986 5.92755C41.986 9.22064 44.6205 11.8551 47.9135 11.8551C48.6819 11.8551 49.4503 11.7453 50.1089 11.416C54.0606 16.1361 56.256 21.9539 56.256 28.2108C56.256 42.5906 44.5107 54.3359 30.1309 54.3359C15.7511 54.3359 4.00575 42.5906 4.00575 28.2108C4.00575 21.8441 6.31091 15.8068 10.3724 11.1965C11.2505 11.6356 12.1287 11.8551 13.1166 11.8551C16.4097 11.8551 19.0442 9.22064 19.0442 5.92755C19.0442 2.63447 16.4097 0 13.1166 0C9.82353 0 7.18907 2.63447 7.18907 5.92755C7.18907 6.80571 7.4086 7.57409 7.73791 8.34248C2.90806 13.831 0.163818 20.7464 0.163818 28.2108C0.163818 44.3469 12.8971 57.4094 28.8137 58.0681V70.0329C28.8137 86.6081 42.2055 100 58.5612 100C74.9168 100 88.3087 86.6081 88.3087 70.0329V53.5675C94.7851 52.5796 99.8345 46.9813 99.8345 40.1756C99.9443 32.8211 93.7972 26.7838 86.4426 26.7838ZM86.4426 49.8354C81.1737 49.8354 76.8927 45.5543 76.8927 40.2854C76.8927 35.0165 81.1737 30.7355 86.4426 30.7355C91.7116 30.7355 95.9926 35.0165 95.9926 40.2854C95.9926 45.5543 91.7116 49.8354 86.4426 49.8354Z" fill="#37D396"/>
</svg>
