<svg width="100" height="100" viewBox="0 0 100 100" fill="none" xmlns="http://www.w3.org/2000/svg">
<path d="M93.6782 34.0229C89.8851 27.4712 84.4828 21.839 78.1609 17.7011L82.4138 5.86203C82.5287 5.5172 82.6437 5.17237 82.6437 4.7126C82.6437 3.21835 81.3793 1.95398 79.8851 1.95398H20C19.6552 1.95398 19.4253 1.95398 19.0805 2.06892C17.7011 2.52869 16.8966 4.13789 17.4713 5.5172L21.8391 17.5862C15.5172 21.839 10.1149 27.3563 6.32184 34.0229C2.29885 41.0344 0 49.0804 0 57.7011V94.4827C0 95.5172 0.45977 96.3218 1.03448 97.0115C1.72414 97.7011 2.52874 98.046 3.56322 98.046H97.2414C98.7356 98.046 100 96.7816 100 95.2873V57.7011C100 49.0804 97.7011 40.9195 93.6782 34.0229ZM76.0919 7.47122L72.2989 17.8161L65.7471 35.977H34.2529L27.7011 17.931L23.908 7.47122H76.0919ZM70 92.5287C72.5287 90.9195 74.9425 89.0804 77.1264 87.0115C83.908 80.2299 88.1609 70.8046 88.1609 60.4597C88.1609 58.9655 86.8966 57.7011 85.4023 57.7011H50.4598H15.7471C14.2529 57.7011 12.9885 58.9655 12.9885 60.4597C12.9885 70.8046 17.2414 80.2299 24.023 87.0115C26.092 89.0804 28.5057 90.9195 31.1494 92.5287H5.51724V57.7011C5.51724 50.1149 7.58621 42.8735 11.1494 36.6666C14.2529 31.1494 18.6207 26.5517 23.7931 22.8735L29.7701 39.6551C29.7701 39.7701 29.8851 39.7701 29.8851 39.885C30 40 30 40.2298 30.1149 40.3448C30.2299 40.4597 30.2299 40.4597 30.3448 40.5747C30.4598 40.6896 30.5747 40.8046 30.6897 40.9195C30.8046 41.0344 30.9195 41.0344 30.9195 41.0344C31.0345 41.1494 31.2644 41.2643 31.3793 41.2643C31.4943 41.2643 31.6092 41.2643 31.7241 41.2643C31.8391 41.2643 32.069 41.3793 32.1839 41.3793H67.4713C67.5862 41.3793 67.8161 41.3793 67.931 41.2643C68.046 41.2643 68.1609 41.2643 68.2759 41.2643C68.3908 41.2643 68.6207 41.1494 68.7356 41.0344C68.8506 41.0344 68.9655 40.9195 68.9655 40.9195C69.0805 40.8046 69.1954 40.6896 69.3103 40.5747C69.4253 40.4597 69.4253 40.4597 69.5402 40.3448C69.6552 40.2298 69.7701 40 69.7701 39.885C69.7701 39.7701 69.8851 39.7701 69.8851 39.6551L73.9081 28.6206L75.977 22.9885C81.1494 26.5517 85.5172 31.2643 88.6207 36.7816C92.1839 42.9885 94.2529 50.1149 94.2529 57.8161V92.5287H70ZM50.4598 92.5287C41.6092 92.5287 33.5632 88.9655 27.8161 83.1034C22.6437 77.931 19.1954 70.9195 18.5057 63.2184H50.4598H82.4138C81.7241 71.0344 78.3908 77.931 73.1034 83.1034C67.3563 88.9655 59.3103 92.5287 50.4598 92.5287Z" fill="#37D396"/>
<path d="M41.0345 24.4828H47.2414V30.6897C47.2414 32.1839 48.5057 33.4483 50 33.4483C51.4942 33.4483 52.7586 32.1839 52.7586 30.6897V24.4828H58.9655C60.4598 24.4828 61.7241 23.2184 61.7241 21.7241C61.7241 20.2299 60.4598 18.9655 58.9655 18.9655H52.7586V12.7586C52.7586 11.2644 51.4942 10 50 10C48.5057 10 47.2414 11.2644 47.2414 12.7586V18.9655H41.0345C39.5402 18.9655 38.2758 20.2299 38.2758 21.7241C38.2758 23.2184 39.5402 24.4828 41.0345 24.4828Z" fill="#37D396"/>
</svg>
