<svg width="100" height="100" viewBox="0 0 100 100" fill="none" xmlns="http://www.w3.org/2000/svg">
<g clip-path="url(#clip0)">
<path d="M99.247 20.9272L91.7038 13.4887L84.7892 6.57412C84.7892 6.57412 84.6844 6.57412 84.6844 6.46936L78.9222 0.707177C77.9793 -0.235726 76.4078 -0.235726 75.3602 0.707177C74.4173 1.65008 74.4173 3.22158 75.3602 4.26925L79.3413 8.25039L74.103 13.5935L68.1312 7.62179C67.1883 6.67889 65.6168 6.67889 64.5692 7.62179L6.94738 65.2436C6.00448 66.1865 6.00448 67.758 6.94738 68.8057L12.9191 74.7774L7.89029 79.8062C6.94738 80.7491 6.94738 82.3206 7.89029 83.3683L10.5095 85.9874L0.766136 95.7308C-0.176766 96.6737 -0.176766 98.2452 0.766136 99.2928C1.70904 100.236 3.28054 100.236 4.32821 99.2928L14.0715 89.5495L16.6907 92.1687C17.6336 93.1116 19.2051 93.1116 20.2528 92.1687L25.2816 87.1399L31.1485 92.9021C32.0914 93.845 33.6629 93.845 34.7106 92.9021L92.3324 35.2803C93.2753 34.3374 93.2753 32.7659 92.3324 31.7182L86.2559 25.8512L91.599 20.5081L95.5802 24.4893C96.5231 25.4322 98.0946 25.4322 99.1422 24.4893C100.19 23.4416 100.19 21.8701 99.247 20.9272ZM18.367 86.7208L13.2334 81.5872L16.4812 78.3395L21.6147 83.473L18.367 86.7208ZM86.9893 33.604L77.3507 43.2425L67.6074 33.4992C66.6645 32.5563 65.093 32.5563 64.0453 33.4992C63.1024 34.4421 63.1024 36.0136 64.0453 37.0613L73.7887 46.8046L66.874 53.7192L57.1307 43.9759C56.1878 43.033 54.6163 43.033 53.5687 43.9759C52.6257 44.9188 52.6257 46.4903 53.5687 47.538L63.312 57.2813L56.3974 64.1959L46.654 54.4526C45.7111 53.5097 44.1396 53.5097 43.092 54.4526C42.1491 55.3955 42.1491 56.967 43.092 58.0147L52.8353 67.758L45.9207 74.6726L36.1773 64.9293C35.2344 63.9864 33.6629 63.9864 32.6153 64.9293C31.6724 65.8722 31.6724 67.4437 32.6153 68.4914L42.3586 78.2347L32.72 87.8732L12.2905 67.0246L66.3502 12.9649L72.3219 18.9366L81.0176 27.6323L86.9893 33.604ZM82.7986 22.2892L77.665 17.1556L83.0081 11.8125L83.1129 11.9172L88.1417 16.946L82.7986 22.2892Z" fill="#37D396"/>
</g>
<defs>
<clipPath id="clip0">
<rect width="100" height="100" fill="white"/>
</clipPath>
</defs>
</svg>
