<svg width="100" height="100" viewBox="0 0 100 100" fill="none" xmlns="http://www.w3.org/2000/svg">
<g clip-path="url(#clip0)">
<path d="M89.0681 54.6546C88.5784 52.0103 87.697 49.4639 86.7176 47.0154C85.7382 44.6649 84.465 42.3144 83.0939 40.2577C81.6248 38.1031 80.0578 36.1443 78.197 34.2835C76.2382 32.3247 73.6918 30.8556 71.0475 29.9742C68.3052 28.9948 65.3671 28.701 62.7227 29.0928C60.4702 29.3866 58.6093 30.1701 56.6506 30.9536C55.2794 31.5412 53.8104 32.1288 52.2434 32.4227L52.4392 19.5928C53.7124 17.0464 53.4186 14.1082 51.8516 11.0721C50.3825 8.23193 47.8361 5.48967 44.4083 3.33503C44.4083 3.33503 44.4083 3.33503 44.3104 3.33503H44.2124C40.7846 1.18039 37.0629 0.103067 33.831 0.00512909C30.3052 -0.0928091 27.2691 1.18039 25.6042 3.72678C25.5062 3.82472 25.5062 3.92266 25.4083 4.02059C23.8413 6.56699 24.1351 9.79894 25.7021 13.0309C27.1712 15.8711 29.8155 18.7113 33.2433 20.866C36.6712 23.0206 40.3928 24.0979 43.6248 24.1959C44.9959 24.1959 46.3671 24 47.5423 23.6082L47.7382 32.3247C46.1712 32.0309 44.7021 31.4433 43.331 30.8556C41.4702 30.0721 39.6093 29.2886 37.2588 28.9948C34.6145 28.6031 31.6763 28.9948 28.9341 29.8763C26.2897 30.7577 23.7433 32.2268 21.7846 34.1855C19.9238 36.0464 18.3567 38.0051 16.8877 40.1598C15.5165 42.2165 14.2433 44.4691 13.264 46.9175C12.2846 49.366 11.4031 51.9123 10.9134 54.5567C10.4238 57.1031 10.1299 59.8453 10.1299 62.4897C10.1299 65.134 10.4238 67.8763 10.9134 70.4227C11.4031 73.067 12.2846 75.6134 13.264 78.0618C14.2433 80.4124 15.5165 82.7629 16.8877 84.8196C18.3567 86.9742 19.9238 88.933 21.7846 90.7938C23.6454 92.6546 25.6042 94.2216 27.7588 95.6907C29.8155 97.0619 32.0681 98.335 34.5165 99.3144C37.9444 100.783 41.0784 99.6082 44.4083 98.433C46.2691 97.7474 48.2279 97.0618 49.9908 97.0618C51.7537 97.0618 53.7124 97.7474 55.5733 98.433C58.9031 99.6082 62.0372 100.783 65.465 99.3144C67.8155 98.335 70.166 97.0619 72.2227 95.6907C74.3774 94.2216 76.3361 92.6546 78.197 90.7938C80.0578 88.933 81.6248 86.9742 83.0939 84.8196C84.465 82.7629 85.7382 80.5103 86.7176 78.0618C87.697 75.6134 88.5784 73.067 89.0681 70.4227C89.5578 67.8763 89.8516 65.134 89.8516 62.4897C89.9495 59.8453 89.6557 57.201 89.0681 54.6546ZM43.9186 19.3969C41.5681 19.3969 38.7279 18.5154 35.9856 16.7526C33.2434 15.0876 31.1866 12.835 30.1093 10.7783C29.2279 9.01544 29.032 7.44843 29.6196 6.27317C29.6196 6.17523 29.7176 6.17523 29.7176 6.07729C30.4031 4.99997 31.9702 4.51028 33.9289 4.51028C36.2794 4.51028 39.1196 5.39173 41.8619 7.05668C41.9598 7.05668 41.9598 7.15461 42.0578 7.15461C44.7021 8.81956 46.7588 10.9742 47.8361 13.1288C48.7176 14.8917 48.9135 16.5567 48.2279 17.634C47.4444 18.9072 45.8774 19.3969 43.9186 19.3969ZM84.563 69.5412C84.0733 71.8917 83.3877 74.1443 82.5062 76.201C81.6248 78.2577 80.5475 80.3144 79.2743 82.1752C78.0011 84.0361 76.532 85.799 74.965 87.4639C73.398 89.0309 71.6351 90.5 69.6763 91.7732C67.8155 93.0464 65.7588 94.1237 63.7021 95.0051C61.9392 95.7887 59.5887 94.9072 57.1403 94.0258C54.8877 93.2423 52.5372 92.3608 49.9908 92.3608C47.4444 92.3608 45.0939 93.2423 42.8413 94.0258C40.3928 94.9072 38.0423 95.6907 36.2794 95.0051C34.2227 94.1237 32.166 93.0464 30.3052 91.7732C28.4444 90.5 26.6815 89.0309 25.0165 87.4639C23.4495 85.8969 21.9805 84.134 20.7073 82.1752C19.4341 80.3144 18.3567 78.2577 17.4753 76.201C16.5939 74.0464 15.9083 71.7938 15.4186 69.5412C14.9289 67.2886 14.733 64.9381 14.733 62.4897C14.733 60.0412 14.9289 57.6907 15.4186 55.4381C15.9083 53.0876 16.5939 50.835 17.4753 48.7783C18.3567 46.7216 19.4341 44.6649 20.7073 42.8041C21.9805 40.9433 23.4495 39.1804 25.0165 37.5154C26.3877 36.1443 28.3464 34.969 30.4031 34.2835C32.4598 33.5979 34.7124 33.3041 36.5732 33.5979C38.2382 33.7938 39.8052 34.4794 41.4702 35.1649C44.0165 36.1443 46.5629 37.2216 49.9908 37.2216C53.4186 37.2216 55.965 36.1443 58.5114 35.1649C60.1763 34.4794 61.7434 33.7938 63.4083 33.5979C65.3671 33.3041 67.5217 33.5979 69.5784 34.2835C71.6351 34.969 73.4959 36.0464 74.965 37.5154C76.532 39.0825 78.0011 40.8453 79.2743 42.8041C80.5475 44.6649 81.6248 46.7216 82.5062 48.7783C83.3877 50.933 84.0733 53.1855 84.563 55.4381C85.0526 57.6907 85.2485 60.0412 85.2485 62.4897C85.2485 64.9381 84.9547 67.2886 84.563 69.5412Z" fill="#37D396"/>
</g>
<defs>
<clipPath id="clip0">
<rect width="100" height="100" fill="white"/>
</clipPath>
</defs>
</svg>
