<svg width="100" height="100" viewBox="0 0 100 100" fill="none" xmlns="http://www.w3.org/2000/svg">
<g clip-path="url(#clip0)">
<path d="M70.9535 13.082C56.7628 13.082 45.3437 24.612 45.3437 38.6918C45.3437 52.7716 56.8736 64.4124 70.9535 64.4124C85.0333 64.4124 96.5632 52.8825 96.5632 38.8027C96.5632 24.7228 85.1441 13.082 70.9535 13.082ZM70.9535 60.4213C58.9801 60.4213 49.224 50.6652 49.224 38.6918C49.224 26.7184 58.9801 16.9623 70.9535 16.9623C82.9269 16.9623 92.6829 26.7184 92.6829 38.6918C92.6829 50.6652 82.9269 60.4213 70.9535 60.4213Z" fill="#37D396"/>
<path d="M83.8137 32.4834H77.2727V25.9423C77.2727 24.8337 76.3858 23.9468 75.2771 23.9468H66.6297C65.5211 23.9468 64.6341 24.8337 64.6341 25.9423V32.4834H58.0931C56.9845 32.4834 56.0976 33.3703 56.0976 34.4789V43.1264C56.0976 44.235 56.9845 45.122 58.0931 45.122H64.6341V51.663C64.6341 52.7716 65.5211 53.6585 66.6297 53.6585H75.2771C76.3858 53.6585 77.2727 52.7716 77.2727 51.663V45.122H83.8137C84.9224 45.122 85.8093 44.235 85.8093 43.1264V34.4789C85.8093 33.3703 84.9224 32.4834 83.8137 32.4834ZM81.8182 41.1308H75.2771C74.1685 41.1308 73.2816 42.0177 73.2816 43.1264V49.6674H68.6253V43.1264C68.6253 42.0177 67.7383 41.1308 66.6297 41.1308H60.0887V36.4745H66.6297C67.7383 36.4745 68.6253 35.5876 68.6253 34.4789V27.827H73.2816V34.4789C73.2816 35.5876 74.1685 36.4745 75.2771 36.4745H81.8182V41.1308Z" fill="#37D396"/>
<path d="M39.6896 86.5854L36.6962 85.4767L40.2439 83.8137C41.0199 83.4812 41.4634 82.7051 41.3525 81.929C41.3525 81.153 40.7982 80.3769 40.0222 80.1552L37.1397 79.1574V77.2727C37.694 77.2727 38.3592 77.3836 38.9135 77.3836C40.0222 77.3836 40.9091 76.4967 40.9091 75.388V57.2062C40.9091 56.0976 40.0222 55.2106 38.9135 55.2106H31.4856C22.949 55.2106 18.6253 50 18.6253 39.5787C18.4035 28.9357 23.3924 22.2838 31.2638 22.2838H38.6918C39.8004 22.2838 40.6873 21.3969 40.6873 20.2882V1.99557C40.6873 0.886918 39.8004 0 38.6918 0C35.9202 0 33.3703 0.332594 30.8204 0.997783C30.7095 0.997783 30.5987 0.997783 30.4878 1.10865C14.9667 5.32151 3.43679 20.51 3.43679 38.8027C3.43679 56.9845 14.9667 72.173 30.4878 76.2749C30.5987 76.3858 30.7095 76.3858 30.8204 76.3858C31.5964 76.6075 32.2616 76.7184 33.0377 76.8293V80.5987C33.0377 81.2639 33.3703 81.929 34.0355 82.2616L30.4878 83.8137C29.7117 84.1463 29.2683 84.9224 29.3791 85.6985C29.3791 86.4745 29.9335 87.2506 30.7095 87.4723L33.9246 88.6918L30.5987 90.3548C29.9335 90.6874 29.49 91.4634 29.49 92.2395C29.49 93.0155 30.0443 93.6807 30.8204 94.0133L33.4811 95.0111V98.0044C33.4811 99.1131 34.3681 100 35.4767 100C36.5854 100 37.4723 99.1131 37.4723 98.0044V93.6807C37.4723 92.9047 37.0288 92.2395 36.4745 91.9069L39.9113 90.2439C40.5765 89.9113 41.0199 89.1353 41.0199 88.3592C41.0199 87.5831 40.4656 86.918 39.6896 86.5854ZM33.2594 4.54545C34.3681 4.32373 35.5876 4.21286 36.8071 4.102V18.2927H33.2594V4.54545ZM29.2683 71.8404C16.5188 67.4058 7.31706 54.2129 7.31706 38.6918C7.31706 23.1707 16.6297 10.0887 29.2683 5.6541V18.5144C22.0621 19.2905 14.5233 25.1663 14.5233 39.5787C14.5233 51.2195 19.8448 58.204 29.2683 59.0909V71.8404ZM33.2594 72.949V59.2018H36.8071V73.3925C35.5876 73.2816 34.4789 73.1707 33.2594 72.949Z" fill="#37D396"/>
</g>
<defs>
<clipPath id="clip0">
<rect width="100" height="100" fill="white"/>
</clipPath>
</defs>
</svg>
