<svg width="96" height="96" viewBox="0 0 96 96" fill="none" xmlns="http://www.w3.org/2000/svg">
<path d="M66 12C78.152 12 88 22 88 36C88 64 58 80 48 86C40.092 81.256 19.668 70.252 11.476 52.004L4 52V44H8.84C8.296 41.456 8 38.792 8 36C8 22 18 12 30 12C37.44 12 44 16 48 20C52 16 58.56 12 66 12ZM66 20C61.696 20 57.04 22.28 53.656 25.656L48 31.312L42.344 25.656C38.96 22.28 34.304 20 30 20C22.24 20 16 26.624 16 36C16 38.74 16.36 41.408 17.068 44H25.736L34 30.224L46 50.224L49.736 44H68V52H54.264L46 65.776L34 45.776L30.264 52H20.432C23.592 57.496 28.372 62.672 34.58 67.612C37.56 69.98 40.74 72.192 44.264 74.412C45.46 75.168 46.644 75.892 48 76.7C49.356 75.892 50.54 75.168 51.736 74.416C55.26 72.192 58.44 69.98 61.416 67.612C73.34 58.132 80 47.772 80 36C80 26.56 73.852 20 66 20Z" fill="#6F88FF"/>
</svg>
