<svg width="96" height="96" viewBox="0 0 96 96" fill="none" xmlns="http://www.w3.org/2000/svg">
<path d="M48 88C25.908 88 8 70.092 8 48C8 25.908 25.908 8 48 8C70.092 8 88 25.908 88 48C88 70.092 70.092 88 48 88ZM48 80C56.4869 80 64.6263 76.6286 70.6274 70.6274C76.6286 64.6263 80 56.4869 80 48C80 39.5131 76.6286 31.3737 70.6274 25.3726C64.6263 19.3714 56.4869 16 48 16C39.5131 16 31.3737 19.3714 25.3726 25.3726C19.3714 31.3737 16 39.5131 16 48C16 56.4869 19.3714 64.6263 25.3726 70.6274C31.3737 76.6286 39.5131 80 48 80ZM52 48H68V56H44V28H52V48Z" fill="#6F88FF"/>
</svg>
