<svg width="96" height="96" viewBox="0 0 96 96" fill="none" xmlns="http://www.w3.org/2000/svg">
<path d="M24 32V28C24 21.6348 26.5286 15.5303 31.0294 11.0294C35.5303 6.52856 41.6348 4 48 4C54.3652 4 60.4697 6.52856 64.9706 11.0294C69.4714 15.5303 72 21.6348 72 28V32H80C81.0609 32 82.0783 32.4214 82.8284 33.1716C83.5786 33.9217 84 34.9391 84 36V84C84 85.0609 83.5786 86.0783 82.8284 86.8284C82.0783 87.5786 81.0609 88 80 88H16C14.9391 88 13.9217 87.5786 13.1716 86.8284C12.4214 86.0783 12 85.0609 12 84V36C12 34.9391 12.4214 33.9217 13.1716 33.1716C13.9217 32.4214 14.9391 32 16 32H24ZM76 40H20V80H76V40ZM44 62.928C42.4749 62.0475 41.2829 60.6883 40.609 59.0613C39.935 57.4342 39.8168 55.6303 40.2726 53.9292C40.7284 52.2282 41.7328 50.725 43.1299 49.653C44.5271 48.5809 46.2389 47.9998 48 47.9998C49.7611 47.9998 51.4729 48.5809 52.8701 49.653C54.2672 50.725 55.2716 52.2282 55.7274 53.9292C56.1832 55.6303 56.065 57.4342 55.391 59.0613C54.7171 60.6883 53.5251 62.0475 52 62.928V72H44V62.928ZM32 32H64V28C64 23.7565 62.3143 19.6869 59.3137 16.6863C56.3131 13.6857 52.2435 12 48 12C43.7565 12 39.6869 13.6857 36.6863 16.6863C33.6857 19.6869 32 23.7565 32 28V32Z" fill="#6F88FF"/>
</svg>
