<svg width="64" height="57" viewBox="0 0 64 57" fill="none" xmlns="http://www.w3.org/2000/svg">
<path d="M13.2955 57C21.0682 57 27 51.2796 27 43.1075C27 36.9785 23.5227 32.2796 18.4091 30.4409L25.9773 3.72529e-06L13.0909 2.59873e-06L3.47728 28.3978C0.818182 35.957 -3.35619e-07 39.0215 -6.9283e-07 43.1075C-1.38939e-06 51.0753 5.52272 57 13.2955 57Z" fill="#4E428A"/>
<path d="M50.2955 57C58.0682 57 64 51.2796 64 43.1075C64 36.9785 60.5227 32.2796 55.4091 30.4409L62.9773 3.72529e-06L50.0909 2.59873e-06L40.4773 28.3978C37.8182 35.957 37 39.0215 37 43.1075C37 51.0753 42.5227 57 50.2955 57Z" fill="#4E428A"/>
</svg>
